<svg width="330" height="377" viewBox="0 0 330 377" fill="none" xmlns="http://www.w3.org/2000/svg">
<g opacity="0.2">
<path d="M187.381 188.5C187.381 213.287 167.287 233.381 142.5 233.381C117.713 233.381 97.619 213.287 97.619 188.5C97.619 163.713 117.713 143.619 142.5 143.619C167.287 143.619 187.381 163.713 187.381 188.5Z" fill="white"/>
<path fill-rule="evenodd" clip-rule="evenodd" d="M142.5 377C237.463 377 316.025 306.778 329.091 215.429H218.689C207.599 246.806 177.675 269.286 142.5 269.286C107.325 269.286 77.4013 246.806 66.3111 215.429H-44.0911C-31.0245 306.778 47.5371 377 142.5 377ZM66.3111 161.571H-44.0911C-31.0245 70.2218 47.5371 0 142.5 0C237.463 0 316.025 70.2218 329.091 161.571H218.689C207.599 130.194 177.675 107.714 142.5 107.714C107.325 107.714 77.4013 130.194 66.3111 161.571ZM187.381 188.5C187.381 213.287 167.287 233.381 142.5 233.381C117.713 233.381 97.619 213.287 97.619 188.5C97.619 163.713 117.713 143.619 142.5 143.619C167.287 143.619 187.381 163.713 187.381 188.5Z" fill="white"/>
</g>
</svg>
